<?xml version="1.0" standalone="no"?>
<!DOCTYPE svg PUBLIC "-//W3C//DTD SVG 20010904//EN"
 "http://www.w3.org/TR/2001/REC-SVG-20010904/DTD/svg10.dtd">
<svg version="1.0" xmlns="http://www.w3.org/2000/svg"
 width="138.000000pt" height="138.000000pt" viewBox="0 0 138.000000 138.000000"
 preserveAspectRatio="xMidYMid meet">
<metadata>
Created by potrace 1.14, written by Peter Selinger 2001-2017
</metadata>
<g transform="translate(0.000000,138.000000) scale(0.100000,-0.100000)"
fill="#000000" stroke="none">
<path d="M609 1224 c-263 -62 -488 -307 -490 -537 -2 -98 27 -171 91 -236 230
-232 730 -67 876 289 34 82 42 210 17 274 -40 101 -123 178 -229 209 -62 18
-190 19 -265 1z m221 -169 c29 -15 100 -92 100 -108 0 -4 -11 0 -25 11 -55 44
-178 52 -272 19 -104 -36 -203 -119 -249 -208 -23 -44 -28 -68 -28 -126 -1
-67 -2 -70 -18 -56 -9 8 -24 37 -33 63 -69 209 197 465 444 428 29 -5 66 -15
81 -23z m72 -180 c44 -7 48 -16 32 -78 -46 -177 -252 -315 -437 -294 -73 9
-81 20 -61 87 45 153 188 268 364 293 25 4 34 3 102 -8z"/>
<path d="M1162 923 c20 -51 14 -181 -12 -248 -114 -298 -471 -485 -749 -394
-40 13 -72 31 -122 68 -32 25 -32 24 11 -35 56 -76 84 -101 145 -129 71 -34
125 -44 213 -40 262 12 507 195 583 435 37 119 24 219 -42 322 -35 54 -44 61
-27 21z"/>
</g>
</svg>
